<?xml version="1.0" encoding="UTF-8"?><svg xmlns="http://www.w3.org/2000/svg" version="1.2" baseProfile="tiny-ps" viewBox="0 0 159 159"><title>Opterro</title><desc>Opterro brand icon</desc><g><g fill="#e3feff" transform="matrix(.1 0 0 -.1 0 159)"><path d="M671 1564c-18-7-47-30-67-50l-35-37-2-45-1-44-26-11c-14-5-28-10-32-9-5 1-8-2-8-6 0-5-18-14-40-21-22-6-40-16-40-21 0-4-13-11-30-15-16-4-30-10-30-14 0-10-50-34-75-37-11-1-26 3-34 10l-14 11H85l-18-15c-10-8-29-25-42-38l-25-23v-127l14-27c8-15 30-42 51-60l36-34-2-206-2-206-13-14c-8-7-17-15-22-17-4-1-21-20-36-40l-28-38 4-76 3-76 30-24c17-13 39-33 50-43l20-20 40 9c90 20 100 23 111 31l10 8 25-6c13-3 26-9 29-12 9-11 134-70 163-77l29-7-5-19-6-20 16 6c9 4 24 4 34 1l19-6V24l12-12 12-12h283l11 25c7 14 12 34 12 45v18l46 30c25 17 58 34 74 37s34 13 41 21c6 8 19 14 28 14s22 5 27 10c6 6 26 19 45 29l33 18 46-24 45-24 44 6 45 7 35 29 36 29 16 46 16 46-9 42c-6 22-11 47-11 53 0 7-9 15-19 19-10 3-18 10-18 15s-11 14-25 19l-25 10v445l33 18 32 18 22 44 22 43-10 60-11 60-18 20-19 20 7 8 7 7-13-7-12-7-16 15-15 16-32 2c-56 2-91-3-114-18-12-8-30-14-40-13-24 1-79 34-76 46l2 10-21-2-20-1-81 40-82 41-9 30c-4 17-16 46-25 64-9 19-15 39-13 43 1 4-5 8-14 8h-15l5 8 5 8-33 12c-18 7-51 14-74 16l-40 3-31-13zm-29-296 26-13 4-90 4-90-7-9-8-9h-85l-44-43-45-43-46 32c-25 17-53 38-63 46l-17 15 5 8c3 5 2 8-3 7-4-1-15-1-25 0l-16 1 1 32 2 33 30 10c17 5 32 13 35 16 9 12 70 40 70 32 0-4 5-2 12 5s19 12 27 12c9 0 36 14 60 30 50 34 49 34 83 18zm257-14 30-25 23-2c21-3 116-46 164-77l22-14-1-33-1-33-18-6c-10-3-24-11-30-18-7-6-40-27-73-46l-60-35-25-1c-14 0-32-4-41-8l-17-7-27 35-27 36h-28v236l28 11c41 16 48 15 81-13zm-149-243 29-28-5-51-5-51 21-21 21-21 34 27c19 14 35 23 35 18s12 4 26 19l25 27 10-5 9-6 6 15c9 22 25 20 51-8l22-23-15-21c-8-12-19-22-25-22-16 0-92-53-121-83l-27-29 7-19 7-18 62-46c35-25 67-45 73-45 5 0 31-13 57-29l48-30-28-10c-16-6-38-11-49-11-12 0-31-8-42-17-12-10-18-14-14-9l7 9-9 16c-5 10-36 36-70 59l-61 42h-18c-10 0-24-7-31-15l-12-15 6-16 6-17-16-18-17-19h-57v50h21l-15 16c-9 8-16 20-16 25v9h-19c-11 0-23-5-26-10l-6-10-10 6-9 5-48-41c-26-23-47-46-47-52v-9l74-5c41-3 77-6 80-9 4-2 5-63 4-136l-3-132-25-23-25-23-5 10c-4 5-14 9-24 9s-28 9-41 20-31 20-41 20-20 4-23 9c-7 11-130 71-145 71h-11v77l23 12c12 7 40 23 62 37 22 13 48 27 58 30l17 6v34l-37 2c-21 2-42 7-46 11l-9 9 12 19c7 11 27 25 44 33 48 20 143 90 161 116l16 24-36 35c-19 20-45 40-57 46-13 5-34 16-48 24l-25 15-11-15c-6-8-16-15-22-15-7 0-34-14-61-31l-50-30-7-22c-4-12-7-35-6-51 0-16-4-38-9-48l-10-18h11c5 0 10-6 10-14 0-7 10-25 21-40 12-15 20-28 18-29s-25-13-51-26l-47-23-16 6-15 6-2 27c-4 65 2 371 7 401l6 32h18c10 0 24-7 31-15s16-15 21-15c10 0 91-50 99-62 3-3 17-9 31-13l25-6 15 17c8 9 14 26 14 37v20l11 4 11 4 6-21c3-11 9-20 14-19 17 3 32-2 45-14 7-7 32-24 56-37l43-24 9 14 10 15v81c0 105 10 116 60 65zm485-45 16-24-1-184c0-100 1-192 2-202l3-20-28-15-29-16-15 23-15 22h-18c-26 0-29 9-12 39l16 28 18-5 18-4v23l-10-6-10-6v50c0 73-27 127-73 144l-17 6-10 27-11 27 16 23c8 13 22 24 29 24s19 7 26 15 20 15 29 15h16l13 20c16 26 28 25 47-4zM943 512l16-14 20 7 19 6 28-28c15-15 46-37 68-48l41-20 3-24 4-24-26-22c-15-13-41-29-59-36-17-7-39-18-47-24-8-7-25-15-38-18l-22-5 6 10 7 11-14-5c-8-3-14-11-14-18v-13l-44-23-43-24-22 12c-11 6-24 16-28 22l-8 11v283l68-1 69-2 16-13zM710 969v-10l10 6c6 3 10 8 10 11 0 2-4 4-10 4-5 0-10-5-10-11zM327 833c-4-3-7-11-7-17v-10l12 12c6 6 9 14 7 17-3 3-9 2-12-2zm708-263-20-9h17c9-1 20 4 23 9 7 11 7 11-20 0zm465 554v-15l10 6 10 6-5 10c-9 14-15 11-15-7zM1 534l1-19 5 13c3 7 2 16-1 19-3 4-6-2-5-13z" /></g><g fill="#a7e2f8" transform="matrix(.1 0 0 -.1 0 159)"><path d="M685 1554c-63-21-95-60-104-129l-6-39-152-76-153-76-32 20-32 20h-53l-52-1-36-27-35-27-15-36c-8-19-15-49-15-65v-29l20-38 19-39 36-22 35-22V522l-34-20-33-20-22-44c-26-54-26-81-1-135l19-43 33-20c18-11 48-23 67-26l33-7 53 22 53 22 151-76 151-75V69c0-17 5-39 10-50l11-19h266l11 25c7 14 12 38 12 53v27l150 74 150 73 50-21c61-26 83-26 136 0l43 20 22 35 21 35-4 61-5 62-46 42-47 42v451l18 5c10 4 31 19 47 36l28 29 5 50c6 66-1 91-37 129l-30 31-43 12-43 12-45-18c-25-9-54-18-65-21l-20-4-140 73-140 72-6 35c-13 80-56 127-129 140l-38 7-37-13zm467-441 4-33-95-62-96-61 15-5c21-6 60-43 59-56 0-6-39-36-87-67l-87-55v-58l119-77 118-77-21-12c-12-6-40-14-62-18l-41-7 91-59 90-59-6-31-6-31-15-9c-8-5-76-39-151-76l-136-67-32 20-33 19v298H680V234l-29-22-29-21-153 78-154 78-3 30-3 30 88 59 88 58-45 9c-25 5-51 14-58 19l-13 11 94 61c51 34 102 66 112 72l20 11 3 34 2 34-65 43c-69 45-85 50-85 29v-14l-41-13-40-14-24-28-24-29-7-34-6-35 6-34c4-19 16-45 27-59l20-26-52-35-51-34-24 10-24 11v464l22 10 22 10 100-64 100-63 18 47 18 47-9 6c-4 3-45 29-90 59l-81 54v57l153 77 154 76 31-14 32-14v-212l38-12c20-7 43-15 50-17l12-6v240l33 19 32 20 152-76 151-75 4-33zm108-372V515l-26-12-26-12-39 29c-22 16-46 31-52 33l-12 4 17 19c9 11 22 40 29 66l13 46-18 45-17 46-33 21-33 20-6 37c-4 20-5 38-4 39s38 24 81 52l79 50 24-15 23-15V741zm-670 298c-36-15-90-58-90-72v-12l78-51 77-51 13 5 12 4v84c0 46 1 87 3 92l2 7-35 2c-19 1-46-2-60-8zm192-101 3-73 17-3 17-3 73 48 73 47-23 4-22 3-32-16-33-16-3 11c-6 18-53 70-63 70h-10l3-72zM575 585l-69-44 15-6c9-3 49-5 90-3l74 3 1 35c2 75-14 77-111 15zm209 31c-3-8-4-29-2-48l3-33 83-3 82-3v8c0 12-125 93-144 93h-17l-5-14z" /></g><g fill="#6cb7d9" transform="matrix(.1 0 0 -.1 0 159)"><path d="m652 1533-41-27-16-38c-8-21-15-49-15-61v-22l-155-77-154-78-36 21-36 21-56-4-56-5-33-36-33-35-9-36-10-36 9-35c11-40 52-91 79-100l20-6V515l-29-17C30 470 0 403 8 338l3-27 38-42 37-42 56-5 57-4 35 21 34 22 156-78 156-78V84c0-11 5-35 11-53l11-31h257l11 19c5 11 12 34 14 52l3 32 157 80 156 80 20-18 21-19 57-4 57-4 35 24 35 23 17 35 18 35v67l-17 35-16 35-33 21-34 22v460l36 23 36 23 14 34 14 34v76l-20 33-20 32-32 20-33 20h-90l-33-20-33-20-157 78-157 78-2 32-1 32-19 33c-11 17-34 42-53 54l-33 23h-83l-42-27zm2-254 36-21v-203l45-16 45-17v248h12c6 0 20 8 30 17l19 17 159-79 160-80-1-35v-35l-91-58-91-58 30-19c17-10 33-24 35-32l5-13 80 53 80 53 27-12 26-12V513l-24-12-24-13-54 35-55 35-19-11c-10-6-37-14-59-17l-40-5 87-55 87-55 1-35v-35l-157-78-156-78-34 18-33 18v305h-90V232l-34-22-35-21-155 78-156 77v71l87 55 87 55-39 6c-22 3-49 10-61 17l-21 11-53-36-54-36-25 14-26 15v455l25 16 26 15 88-57c48-31 93-59 100-61l13-5 11 39c7 22 12 41 12 44 0 2-38 29-85 59l-85 54v70l153 77c83 42 153 77 154 77 1 1 18-8 37-20zm-39-238c-41-10-66-24-93-54l-24-25 77-52 76-52 15 6 14 5v181l-17-1c-10-1-31-4-48-8zm165-97v-72l16-6 16-6 75 47 76 48-16 3c-9 2-32-4-52-14l-35-16-40 43-39 44-1-71zm173-117-83-52v-60l110-70c60-38 114-71 119-73l10-3 21 33 20 33v90l-20 33-20 32-25 12-25 11v18c0 22-10 49-19 49-3 0-43-24-88-53zm-493 14v-21h-62l-38-38-38-38-7-37-7-38 16-44 17-43 15-6 15-6 114 73 114 72 1 27v27l-57 39c-32 21-64 42-70 46l-13 7v-20zm125-256-69-45h165l-3 42-3 41-11 4c-6 2-41-17-79-42zm208 38-13-5v-78h173l-69 45c-38 24-71 44-74 44s-11-3-17-6z" /></g><g fill="#3095bf" transform="matrix(.1 0 0 -.1 0 159)"><path d="M659 1536c-20-14-44-37-53-51l-18-27-3-39-3-39-156-77-156-77-39 22-39 22h-63l-38-20-39-19-21-34-21-34v-36c0-60 42-127 90-142l15-5-1-231V517l-36-26-36-26-16-33-16-33v-70l14-27c27-50 80-82 138-82h30l39 22 39 22 155-75 154-74V92c1-12 8-38 15-57l15-35h250l11 19c5 11 10 35 10 54v33l156 77c85 42 160 77 166 77s20-8 31-18l19-17h113l32 24 33 25 16 42 16 43-6 35-7 35-26 32c-14 17-37 35-50 40l-23 9v232l1 233 31 20c17 11 41 33 52 48l21 29v52l-1 52-19 25c-10 14-30 33-43 43l-24 19-42 4-41 5-25-11c-14-6-33-17-42-23l-18-13-160 80-160 80v70l-20 29c-10 17-36 40-57 53l-38 23h-70l-36-24zm2-253 28-17 3-104 3-104 40-14c22-7 41-14 43-14 1 0 2 53 2 118v117l36 20 35 19 155-78 154-78v-76l-82-53c-98-62-97-60-79-67 7-2 22-15 33-28l21-23 73 50c80 54 89 56 122 33l22-15V515l-28-16-27-16-54 35-54 34-24-11c-13-6-41-11-61-11h-37l88-56 87-56v-78l-155-77-155-78-35 19-34 19-3 151-3 151-42 3-43 3V225l-33-21-32-21-157 78-158 79v19c0 11-3 26-6 35l-6 15 92 61 92 60h-35c-20 0-47 5-60 11l-23 11-53-33-52-33-27 10-27 9-3 236-2 236 30 13 30 12 94-60 94-60 17 39c10 22 16 40 14 42-7 5-174 111-176 112-1 1 0 18 4 39l6 37 146 74c80 41 152 74 159 74 8 1 27-7 43-16zm-103-272c-25-16-48-33-51-38l-6-9 76-51 76-51 13 5 14 5v168h-76l-46-29zm232-73v-67l10-6 10-6 65 43 64 43-15 3-15 4-25-17-26-17-13 19c-7 10-22 29-34 43l-20 25-1-67zm163-115-83-56v-43l115-77c63-42 117-77 119-77s13 16 25 36l21 35v72l-25 42-24 43-26 6-25 6v70l-7-1c-5 0-45-25-90-56zm-493 12v-15h-20c-12 0-34-7-51-15l-30-16-19-32-20-32v-90l20-33 20-33 13 7c6 4 60 38 118 76l107 69v48l-62 41c-69 44-76 47-76 25zm155-234c-22-14-51-34-65-43l-24-18h154v78l-12 4-13 5-40-26zm181 22c-3-4-6-24-6-45v-38h155l-45 31c-25 16-57 36-71 44l-26 14-7-6z" /></g><g fill="#179bd7" transform="matrix(.1 0 0 -.1 0 159)"><path d="m668 1533-17-4-25-44-26-44v-60l-46-31c-26-17-49-29-52-26-2 3-38-13-80-35-41-22-77-37-80-35-3 3-12-3-20-15l-14-20-12 4c-7 3-19 1-27-3l-13-9-33 25-32 24h-80l-37-34-38-34-4-62-4-61 47-45 48-44-1-158c-1-86 2-188 6-227l8-69-35-33c-20-18-39-33-42-33s-14-18-24-40l-18-41 16-53 17-54 59-22 59-22 23 7c13 4 29 14 37 21 23 24 49 16 196-56 79-38 148-70 155-70h11V53l21-27 20-26h208l15 22 16 22v31c0 41 7 48 66 73 28 12 90 42 138 67l86 45h79l6-10 6-10h116l23 25c12 13 26 22 30 20l8-5 12 45 13 45-13 29c-6 16-29 48-50 70l-39 40-5 43c-3 24-4 130-3 237l2 194 19 11c11 6 32 25 47 41l28 30 6 33 6 33-12 33-12 33-38 24-38 23 5 8 5 8h-86l-30-20c-16-11-37-20-45-20-19 0-323 150-332 163-4 6-4 23-1 38l5 27-40 43-39 43-54 1c-30 1-62 0-71-2zm9-246 22-22 2-90 2-90 8-16 8-16h51l1 16c0 9 0 56-1 105l-1 89 27 24c15 12 32 24 38 24 25 3 52-4 66-15 20-17 80-46 95-46 7 0 15-6 18-13l5-12 58-24 59-23 23-25 22-24v-22c0-32-8-40-85-93-39-26-71-48-73-50-6-4 23-44 32-44 4 0 36 20 70 43 35 24 74 47 88 50l25 7 17-19 17-19 1-235 1-235-8-11c-4-7-18-16-31-21l-24-9-32 17c-17 9-39 25-48 36l-16 18-44-15-44-15 34-21c19-11 41-21 48-21 6 0 12-4 12-10 0-5 6-10 14-10s21-9 29-21l15-21-3-21c-2-12-6-30-8-40l-3-17-122-60c-67-33-124-60-128-60-3 0-12-7-20-15l-15-15h-65l-21 15-22 15v294l-17 13-17 12-18-10c-24-12-24-29-1-29l17-1-17-10-18-10V232l-26-31-26-31h-14c-8 0-49 18-90 40-42 22-82 40-90 40s-14 4-14 10c0 5-12 13-27 16-15 4-34 13-41 21-7 7-23 13-34 13h-20l-5 20-5 20h-28v28c0 15 4 32 8 37 10 15 118 79 127 76 4-2 12 3 16 11l8 13-22 7c-12 3-35 6-52 7l-30 1-23-25-23-24-41 3-40 4-9 13-9 14v212c0 116-2 218-5 225l-6 14 19 22 19 21 29 3 29 2 23-13c12-6 22-16 22-21s19-19 43-31c23-12 46-28 50-35 4-8 15-14 22-14h15l1 13c1 6 1 18 0 25-1 6 3 12 9 12 5 0 10 4 10 9v9l-22-6-21-5 7 11 6 10-57 36c-32 20-63 36-70 36s-17 9-23 20l-11 20 7 36 7 36 11 3c54 16 108 40 125 56 11 10 26 19 34 19s26 9 40 20 29 20 34 19c4-1 14-1 21 0l13 1-6 9-5 10 17 10 18 11 30-5 30-5 22-23zm-566-130c-13-13-26-3-16 12l6 11 11-6 10-6-11-11zm482-143c-28-13-56-31-62-38l-12-14 38-23c21-13 44-29 51-36l13-13h50l-3 72-3 71-10 3c-5 2-33-8-62-22zm197-76c0-18 4-40 10-48l9-14 38 18 38 19-20 7c-11 4-27 5-35 2l-15-5 7 8 7 8-10 18c-5 11-14 19-19 19h-10v-32zm185-109c-22-17-50-39-62-49l-23-20v-36l41-23c23-13 55-36 73-50 17-15 48-38 68-50l38-23 10 28c6 15 13 46 16 68l6 41-29 37-28 37-26 11-26 11 5 25 4 24-13-1c-8 0-32-14-54-30zm-523-14-13-15h-48l-20-27c-12-16-25-33-31-40l-10-12v-82l16-24c20-31 29-31 70 0 18 14 37 25 42 25 6 0 12 7 16 15 3 8 12 15 19 15 8 0 21 7 28 16s23 20 36 25l23 9v39l-46 36c-52 39-63 41-82 20zm355-212c4-10 11-21 17-25l11-8h-35v-20h101l-6 10c-3 6-11 10-16 10s-22 11-37 25-30 25-34 25h-7l6-17zm-201-21-40-27 38-3c21-2 44-1 52 2l14 5v51l-12-1c-7 0-31-12-52-27z" /></g></g></svg>